<?xml version="1.0" encoding="utf-8"?><svg xmlns="http://www.w3.org/2000/svg" xmlns:xlink="http://www.w3.org/1999/xlink"><defs><svg viewBox="0 0 24 24" id="music_note" xmlns="http://www.w3.org/2000/svg"><path d="M0 0h24v24H0V0z" fill="none"/><path d="M12 5v8.55c-.94-.54-2.1-.75-3.33-.32-1.34.48-2.37 1.67-2.61 3.07a4.007 4.007 0 004.59 4.65c1.96-.31 3.35-2.11 3.35-4.1V7h2c1.1 0 2-.9 2-2s-.9-2-2-2h-2c-1.1 0-2 .9-2 2z"/></svg><svg viewBox="0 0 24 24" id="piano" xmlns="http://www.w3.org/2000/svg"><path fill="none" d="M0 0h24v24H0z"/><path d="M21 3H3v18h18V3zm-8 11.5h1.25V19h-4.5v-4.5H11V5h2v9.5zM5 5h2v9.5h1.25V19H5V5zm14 14h-3.25v-4.5H17V5h2v14z"/></svg><svg viewBox="0 0 24 24" id="play_arrow" xmlns="http://www.w3.org/2000/svg"><path d="M0 0h24v24H0V0z" fill="none"/><path d="M8 5v14l11-7L8 5z"/></svg><svg viewBox="0 0 24 24" id="stop" xmlns="http://www.w3.org/2000/svg"><path d="M8 6h8c1.1 0 2 .9 2 2v8c0 1.1-.9 2-2 2H8c-1.1 0-2-.9-2-2V8c0-1.1.9-2 2-2z"/></svg></defs></svg>