<?xml version="1.0" encoding="utf-8"?><svg xmlns="http://www.w3.org/2000/svg" xmlns:xlink="http://www.w3.org/1999/xlink"><defs><svg viewBox="0 0 24 24" id="music_note" xmlns="http://www.w3.org/2000/svg"><path d="M0 0h24v24H0V0z" fill="none"/><path d="M12 5v8.55c-.94-.54-2.1-.75-3.33-.32-1.34.48-2.37 1.67-2.61 3.07a4.007 4.007 0 004.59 4.65c1.96-.31 3.35-2.11 3.35-4.1V7h2c1.1 0 2-.9 2-2s-.9-2-2-2h-2c-1.1 0-2 .9-2 2z"/></svg><svg viewBox="0 0 24 24" id="piano" xmlns="http://www.w3.org/2000/svg"><path fill="none" d="M0 0h24v24H0z"/><path d="M19 3H5c-1.1 0-2 .9-2 2v14c0 1.1.9 2 2 2h14c1.1 0 2-.9 2-2V5c0-1.1-.9-2-2-2zm-5 11.5h.25V19h-4.5v-4.5H10c.55 0 1-.45 1-1V5h2v8.5c0 .55.45 1 1 1zM5 5h2v8.5c0 .55.45 1 1 1h.25V19H5V5zm14 14h-3.25v-4.5H16c.55 0 1-.45 1-1V5h2v14z"/></svg><svg viewBox="0 0 24 24" id="play_arrow" xmlns="http://www.w3.org/2000/svg"><path d="M8 6.82v10.36c0 .79.87 1.27 1.54.84l8.14-5.18a1 1 0 000-1.69L9.54 5.98A.998.998 0 008 6.82z"/></svg><svg viewBox="0 0 24 24" id="stop" xmlns="http://www.w3.org/2000/svg"><path d="M8 6h8c1.1 0 2 .9 2 2v8c0 1.1-.9 2-2 2H8c-1.1 0-2-.9-2-2V8c0-1.1.9-2 2-2z"/></svg></defs></svg>